
<svg xmlns="http://www.w3.org/2000/svg" version="1.1" xmlns:xlink="http://www.w3.org/1999/xlink" preserveAspectRatio="none" x="0px" y="0px" width="680px" height="490px" viewBox="0 0 680 490">
<defs>
<g id="Layer1_0_FILL">
<path fill="#067EB2" stroke="none" d="
M 527.05 393.05
Q 527.1 390.25 528.35 388.25 529.6 386.2 531.55 385.1 533.5 384 535.55 384 539.15 384 541.1 385.95 543.05 387.9 543.05 391.35
L 543.05 409.25 544.85 409.25 544.85 391.25
Q 544.8 387.2 542.45 384.85 540.05 382.55 535.95 382.5 533.1 382.5 530.7 383.95 528.35 385.4 527 388.2
L 526.75 383.25 525.25 383.25 525.25 409.25 527.05 409.25 527.05 393.05
M 489.55 376.1
L 489.55 373.25 487.25 373.25 487.25 376.1 489.55 376.1
M 489.3 383.25
L 487.5 383.25 487.5 409.25 489.3 409.25 489.3 383.25
M 501.2 384.05
Q 498.55 385.6 497.05 388.65 495.5 391.7 495.5 396.25 495.5 400.75 497.05 403.8 498.6 406.85 501.25 408.4 503.9 410 507.25 410 510.6 410 513.15 408.45 515.75 406.9 517.25 403.85 518.75 400.8 518.75 396.25 518.75 391.75 517.25 388.65 515.8 385.6 513.2 384.05 510.6 382.5 507.15 382.5 503.8 382.5 501.2 384.05
M 498.65 389.45
Q 499.9 386.7 502.1 385.35 504.3 384 507.15 384 510 384 512.2 385.3 514.4 386.7 515.65 389.45 516.9 392.15 516.9 396.25 516.9 400.35 515.65 403.05 514.4 405.8 512.2 407.15 510 408.5 507.15 408.5 504.4 408.5 502.15 407.15 499.95 405.8 498.65 403.05 497.35 400.35 497.35 396.25 497.35 392.15 498.65 389.45
M 475.9 383.25
L 475.9 377 474.3 377 474.1 383.25 470.35 383.25 470.35 384.8 474.1 384.8 474.1 404.45
Q 474.15 407.25 475.6 408.65 477.05 410 479.6 410 480.35 410 481.15 409.9 481.95 409.8 482.8 409.55
L 482.8 408.1
Q 481.85 408.3 481.1 408.4 480.3 408.5 479.6 408.5 477.9 408.5 476.9 407.55 475.95 406.55 475.9 404.5
L 475.9 384.8 482.1 384.8 482.1 383.25 475.9 383.25
M 448 389.5
Q 449.3 386.7 451.45 385.35 453.6 384 456.3 384 459.6 384.05 461.8 385.7 464 387.4 464.55 390.25
L 466.45 390.25
Q 465.75 386.7 463.05 384.6 460.35 382.55 456.25 382.5 453.15 382.5 450.6 384.05 448 385.55 446.5 388.65 444.95 391.75 444.9 396.45 444.95 400.9 446.4 403.95 447.9 406.95 450.45 408.45 452.95 410 456.15 410 460.3 409.95 463.1 407.75 465.9 405.55 466.6 401.9
L 464.75 401.9
Q 464.2 404.8 461.9 406.6 459.6 408.4 456.25 408.45 453.65 408.45 451.5 407.2 449.35 405.9 448 403.25 446.7 400.65 446.7 396.55 446.7 392.3 448 389.5
M 438.4 383.25
L 436.6 383.25 436.6 399.25
Q 436.55 401.95 435.45 404.05 434.35 406.1 432.45 407.3 430.6 408.5 428.25 408.5 424.8 408.5 422.85 406.65 420.9 404.8 420.85 401.05
L 420.85 383.25 419.05 383.25 419.05 401.15
Q 419.05 404.1 420.2 406.1 421.35 408.05 423.35 409.05 425.3 410 427.85 410 429.5 410 431.2 409.45 432.9 408.9 434.3 407.7 435.7 406.5 436.65 404.6
L 436.9 409.25 438.4 409.25 438.4 383.25
M 400.3 382.5
Q 397.3 382.5 394.85 384.05 392.4 385.55 390.9 388.7 389.45 391.8 389.4 396.55 389.45 401.1 390.9 404.05 392.35 407.1 394.8 408.55 397.25 410 400.2 410 403.6 409.95 405.95 408.25 408.35 406.55 409.55 403.75
L 409.85 409.25 411.3 409.25 411.3 373.25 409.5 373.25 409.5 388.4
Q 408.3 385.7 405.9 384.15 403.55 382.55 400.3 382.5
M 395.9 385.3
Q 398 384 400.55 384 403.15 384 405.2 385.3 407.3 386.65 408.5 389.35 409.7 392.05 409.7 396.15 409.65 400.75 408.3 403.45 406.9 406.15 404.8 407.35 402.7 408.55 400.5 408.5 397.9 408.5 395.85 407.2 393.75 405.95 392.5 403.25 391.25 400.6 391.25 396.5 391.25 392.25 392.55 389.45 393.8 386.7 395.9 385.3
M 372.8 382.5
Q 369.45 382.5 366.85 384.05 364.2 385.6 362.7 388.65 361.15 391.7 361.15 396.25 361.15 400.75 362.7 403.8 364.25 406.85 366.9 408.4 369.55 410 372.9 410 376.25 410 378.8 408.45 381.4 406.9 382.9 403.85 384.4 400.8 384.4 396.25 384.4 391.75 382.9 388.65 381.45 385.6 378.85 384.05 376.25 382.5 372.8 382.5
M 377.85 385.3
Q 380.05 386.7 381.3 389.45 382.55 392.15 382.55 396.25 382.55 400.35 381.3 403.05 380.05 405.8 377.85 407.15 375.65 408.5 372.8 408.5 370.05 408.5 367.8 407.15 365.6 405.8 364.3 403.05 363 400.35 363 396.25 363 392.15 364.3 389.45 365.55 386.7 367.75 385.35 369.95 384 372.8 384 375.65 384 377.85 385.3
M 358.4 382.9
Q 357.95 382.75 357.25 382.6 356.55 382.5 355.8 382.5 353.2 382.45 351.25 384 349.25 385.5 348.2 388.75
L 347.9 383.25 346.45 383.25 346.45 409.25 348.25 409.25 348.25 394.55
Q 348.3 391.45 349.3 389.15 350.3 386.8 351.95 385.5 353.65 384.25 355.65 384.2 356.4 384.2 357.1 384.3 357.8 384.45 358.4 384.65
L 358.4 382.9
M 327.65 395.05
Q 331.2 395.05 334 393.75 336.75 392.45 338.35 390.05 339.95 387.65 339.95 384.35 339.9 379.1 336.75 376.2 333.6 373.3 327.75 373.25
L 315.5 373.25 315.5 409.25 317.35 409.25 317.35 395.05 327.65 395.05
M 338 384.35
Q 337.95 388.6 335.2 390.95 332.45 393.35 327.65 393.35
L 317.35 393.35 317.35 374.9 327.9 374.9
Q 332.7 374.9 335.35 377.4 338 379.9 338 384.35
M 295.5 382.9
Q 295.05 382.75 294.35 382.6 293.65 382.5 292.9 382.5 290.3 382.45 288.35 384 286.35 385.5 285.3 388.75
L 285 383.25 283.55 383.25 283.55 409.25 285.35 409.25 285.35 394.55
Q 285.4 391.45 286.4 389.15 287.4 386.8 289.05 385.5 290.75 384.25 292.75 384.2 293.5 384.2 294.2 384.3 294.9 384.45 295.5 384.65
L 295.5 382.9
M 259.5 384.05
Q 256.85 385.6 255.35 388.65 253.8 391.7 253.8 396.25 253.8 400.75 255.35 403.8 256.9 406.85 259.55 408.4 262.2 410 265.55 410 268.9 410 271.45 408.45 274.05 406.9 275.55 403.85 277.05 400.8 277.05 396.25 277.05 391.75 275.55 388.65 274.1 385.6 271.5 384.05 268.9 382.5 265.45 382.5 262.1 382.5 259.5 384.05
M 256.95 389.45
Q 258.2 386.7 260.4 385.35 262.6 384 265.45 384 268.3 384 270.5 385.3 272.7 386.7 273.95 389.45 275.2 392.15 275.2 396.25 275.2 400.35 273.95 403.05 272.7 405.8 270.5 407.15 268.3 408.5 265.45 408.5 262.7 408.5 260.45 407.15 258.25 405.8 256.95 403.05 255.65 400.35 255.65 396.25 255.65 392.15 256.95 389.45
M 230.9 391.1
L 230.9 374.9 249.55 374.9 249.55 373.25 229.05 373.25 229.05 409.25 230.9 409.25 230.9 392.75 247.7 392.75 247.7 391.1 230.9 391.1
M 196.35 384.8
L 200.1 384.8 200.1 404.45
Q 200.15 407.25 201.6 408.65 203.05 410 205.6 410 206.35 410 207.15 409.9 207.95 409.8 208.8 409.55
L 208.8 408.1
Q 207.85 408.3 207.1 408.4 206.3 408.5 205.6 408.5 203.9 408.5 202.9 407.55 201.95 406.55 201.9 404.5
L 201.9 384.8 208.1 384.8 208.1 383.25 201.9 383.25 201.9 377 200.3 377 200.1 383.25 196.35 383.25 196.35 384.8
M 175.05 384.05
Q 172.4 385.6 170.9 388.65 169.35 391.7 169.35 396.25 169.35 400.75 170.9 403.8 172.45 406.85 175.1 408.4 177.75 410 181.1 410 184.45 410 187 408.45 189.6 406.9 191.1 403.85 192.6 400.8 192.6 396.25 192.6 391.75 191.1 388.65 189.65 385.6 187.05 384.05 184.45 382.5 181 382.5 177.65 382.5 175.05 384.05
M 186.05 385.3
Q 188.25 386.7 189.5 389.45 190.75 392.15 190.75 396.25 190.75 400.35 189.5 403.05 188.25 405.8 186.05 407.15 183.85 408.5 181 408.5 178.25 408.5 176 407.15 173.8 405.8 172.5 403.05 171.2 400.35 171.2 396.25 171.2 392.15 172.5 389.45 173.75 386.7 175.95 385.35 178.15 384 181 384 183.85 384 186.05 385.3
M 137.7 373.25
L 135.65 373.25 135.65 409.25 137.45 409.25 137.45 375.85 160.65 409.25 162.6 409.25 162.6 373.25 160.9 373.25 160.9 406.4 137.7 373.25 Z"/>
</g>

<g id="Layer1_1_FILL">
<path fill="#FFFFFF" stroke="none" d="
M 393.25 78
Q 393.25 58.7 374.5 58
L 157.25 58
Q 137.25 58 137.25 78
L 137.25 110
Q 137.25 130 157.25 130
L 297.6 130 297.3 129.5 297.6 130
Q 315.35 160.65 362.75 171.5 338.8 156.5 342.9 130
L 343.15 129.5 342.9 130 374.5 130
Q 393.25 129.4 393.25 110
L 393.25 78
M 165.65 93.65
Q 165.65 92.25 165.55 87.2 161.95 87.25 160.45 88.05 160.3 90.05 159.25 90.05 158.45 90.05 158.45 88.8 158.45 86.85 159.7 86.25 161.8 85.25 166.15 85.25 174.45 85.25 174.45 87.25 174.45 87.65 174.15 87.95 173.85 88.25 173.55 88.25 173.3 88.25 172.95 88.1 172.5 87.9 172.4 87.85 171.15 87.45 167.45 87.25 167.6 91.75 167.6 93.85 167.6 97.95 167.4 100.85 167.3 101.8 167.1 102.2 166.85 102.6 166.3 102.6 165.35 102.6 165.35 101.35 165.35 101.3 165.5 98.75 165.65 96.15 165.65 93.65
M 177.65 84.7
Q 177.9 85 177.9 85.4
L 177.4 88.7
Q 178.65 87.5 180.5 87.5 184.9 87.5 184.9 94.35 184.9 97.15 184.4 98.85 183.9 100.45 183.1 100.45 182.65 100.45 182.35 100.2 182.05 99.9 182.05 99.55
L 182.5 97.85
Q 183 96.15 183 94.35 183 91.75 182.35 90.55 181.75 89.3 180.35 89.3 179.6 89.3 178.85 89.65 178.05 90 177.65 90.55 177.1 91.2 177.1 92.5
L 177.1 93.15
Q 177.1 95.6 177.3 97.95
L 177.5 100.15
Q 177.5 101.1 176.6 101.1 176.1 101.1 175.85 100.8 175.7 100.5 175.55 99.7 175.2 97.4 175.2 93.65 175.2 90.3 175.95 86.05 176.1 85.15 176.25 84.85 176.5 84.45 177 84.45 177.35 84.45 177.65 84.7
M 190.1 84.2
Q 190.45 84.55 190.45 85.15 190.45 86.55 189.1 86.55 188.55 86.55 188.2 86.15 187.8 85.75 187.8 85.25 187.8 84.65 188.2 84.25 188.6 83.85 189.2 83.85 189.8 83.85 190.1 84.2
M 188.05 91.2
Q 188.05 90.3 188.05 90.2 188.05 88.9 188.25 88.4 188.5 87.8 189.15 87.8 190.05 87.8 190.05 88.85 190.05 94.75 189.6 97.55 189.45 98.7 189.25 99.1 189 99.6 188.4 99.6 188 99.6 187.75 99.35 187.45 99.1 187.45 98.75
L 187.6 98.05
Q 187.8 97.25 187.9 96.2 188.1 94.7 188.1 92.85 188.1 92.05 188.05 91.2
M 199.55 87.8
Q 200.5 88.5 200.5 89.35 200.5 90.35 199.55 90.35 199.2 90.35 199 90.1 198.85 89.9 198.7 89.65 198.1 88.85 197.1 88.85 195.35 88.85 195.35 90.85 195.35 91.5 195.7 92 195.95 92.4 196.65 92.95 198.15 94.15 198.55 94.6 199.35 95.5 199.35 96.7 199.35 98.25 198.35 99.25 197.3 100.2 195.7 100.2 194.15 100.2 193.15 99.4 192.15 98.6 192.15 97.45 192.15 96.25 193.2 96.25 194.1 96.25 194.1 97.55 194.8 98.4 195.7 98.4 196.4 98.4 196.9 97.95 197.35 97.5 197.35 96.85 197.35 96.25 196.8 95.7 196.75 95.7 195.35 94.55 193.35 93 193.35 90.9 193.35 89.2 194.45 88.15 195.45 87.1 197.15 87.1 198.55 87.1 199.55 87.8
M 210.15 89.6
L 210.15 89.8
Q 211.6 87.85 213.7 87.85 215.6 87.85 216.65 89.25 217.7 90.65 217.7 93.3 217.7 95.65 216.95 97.95 216.5 99.35 215.8 99.35 215.45 99.35 215.15 99.15 214.9 98.9 214.9 98.55 214.9 98.5 215.35 96.8 215.85 95.1 215.85 93.45 215.85 89.65 213.45 89.65 212.1 89.65 211.25 90.65 210.35 91.65 210.35 93.35 210.35 94.3 210.6 96 210.9 97.7 210.9 98.45 210.9 100.1 209.95 100.1 209.45 100.1 209.25 99.9 209.1 99.75 209 99.2 209 98.6 208.75 95.7 208.35 91.65 208.35 89.95 208.35 87 209.5 87 209.9 87 210.15 87.25 210.4 87.45 210.4 87.75 210.4 88 210.3 88.6 210.15 89.2 210.15 89.6
M 220.8 97.55
Q 219.5 95.95 219.5 93.15 219.5 90.15 221.05 88.5 222.65 86.9 225.4 86.9 227.75 86.9 229.15 88.55 230.6 90.15 230.6 92.85 230.6 95.7 228.9 97.45 227.25 99.15 224.45 99.15 222.1 99.15 220.8 97.55
M 231.95 91.55
Q 230.9 91.55 230.9 90.75 230.9 89.65 234.5 89.3 235.25 86.95 236.3 86.95 236.65 86.95 236.9 87.2 237.1 87.45 237.1 87.75 237.1 88.05 236.95 88.4 236.85 88.8 236.7 89.2 240.45 89.3 240.45 90.85 240.45 91.2 240.25 91.45 240.05 91.65 239.75 91.65 239.6 91.65 238.6 91.3 237.65 90.9 236.7 90.9 236.4 90.9 236.1 90.95 235.75 92.55 235.75 93.85 235.75 95.6 236.3 96.5 236.9 97.4 237.9 97.4 238.25 97.4 238.75 97.2 239.25 97 239.5 97 240.25 97 240.25 97.95 240.25 98.5 239.6 98.9 238.95 99.25 237.85 99.25 233.7 99.25 233.7 93.75 233.7 92.6 234 91.2 233.75 91.25 232.8 91.4 232.25 91.55 231.95 91.55
M 248.5 84.15
Q 249.3 84.15 249.6 85.35 249.8 86.2 249.95 89.15 251.5 88.05 253.3 88.05 255.55 88.05 256.85 89.55 258.15 91.05 258.15 93.7 258.15 96.7 256.6 98.45 255.1 100.15 252.45 100.15 250.95 100.15 249.9 99.2 249.85 100.05 249.75 100.4 249.55 101 248.9 101 247.95 101 247.95 99.85
L 248 98.8
Q 248.05 97.6 248.1 96.2 248.15 94.25 248.15 92.05 248.15 88.7 247.95 87.1 247.85 86.5 247.7 85.7 247.6 85.1 247.6 84.95 247.6 84.65 247.85 84.4 248.15 84.15 248.5 84.15
M 263.1 94.15
Q 262.35 94.15 261.35 94.05 261.35 97.7 264.15 97.7 264.95 97.7 265.55 97.25 265.85 97.05 266.7 96.25 266.95 95.95 267.3 95.95 267.7 95.95 268 96.25 268.3 96.55 268.3 97 268.3 97.35 268 97.65 266.35 99.5 264.1 99.5 259.4 99.5 259.4 94.1 259.4 91.35 260.9 89.3 262.6 87 265.1 87 267 87 268.3 88.3 269.55 89.6 269.55 91.6 269.55 92.65 268.85 93.1 268.55 93.35 266.85 93.65 264.65 94.15 263.1 94.15
M 279.5 90.55
Q 280.5 88.6 282.45 88.6 283.4 88.6 284 89.05 284.6 89.5 284.6 90.2 284.6 90.6 284.4 90.85 284.15 91.1 283.85 91.1 283.65 91.1 283.15 90.75 282.7 90.4 282.35 90.4 281.4 90.4 280.85 91.25 280.25 92.05 280.25 93.45
L 280.25 94.7
Q 280.25 96.85 279.8 98.1 279.4 99.3 278.7 99.3 277.85 99.3 277.85 98.4 277.85 98.25 278.1 97.1 278.4 96 278.4 95 278.4 92.25 277.6 90.65 277.6 90.6 277.05 89.65 276.8 89.15 276.8 88.9 276.8 88.55 277.1 88.3 277.4 88.05 277.75 88.05 278.8 88.05 279.5 90.55
M 293 93.65
Q 290.8 94.15 289.25 94.15 288.5 94.15 287.5 94.05 287.5 97.7 290.3 97.7 291.1 97.7 291.7 97.25 292 97.05 292.85 96.25 293.1 95.95 293.45 95.95 293.85 95.95 294.15 96.25 294.45 96.55 294.45 97 294.45 97.35 294.15 97.65 292.5 99.5 290.25 99.5 285.55 99.5 285.55 94.1 285.55 91.35 287.05 89.3 288.75 87 291.25 87 293.15 87 294.45 88.3 295.7 89.6 295.7 91.6 295.7 92.65 295 93.1 294.7 93.35 293 93.65
M 298.95 88.15
Q 299.85 87.6 301.1 87.6 305.8 87.6 305.8 94.05 305.8 96.7 305 99.65 304.6 101.1 303.85 101.1 303.05 101.1 303.05 100.2 303.05 100 303.05 99.9 302.1 100.45 301 100.45 299.15 100.45 298.05 99.35 297 98.3 297 96.4 297 94.45 298.15 93.3 299.3 92.15 301.2 92.15 302.85 92.15 303.95 93.25 303.8 89.4 301.1 89.4 300.5 89.4 299.85 89.75 299.15 90.15 298.95 90.15 298.6 90.15 298.35 89.85 298.1 89.6 298.1 89.25 298.1 88.65 298.95 88.15
M 316.85 85.1
Q 317.05 84.1 317.9 84.1 318.75 84.1 318.75 85.15
L 318.6 86.65
Q 318.5 88.4 318.4 90.4 318.3 93.25 318.3 96.5 318.3 97.2 318.3 97.9 318.3 98.55 318.3 98.6 318.3 100.05 317.4 100.05 316.4 100.05 316.4 98.45 316.4 98.05 316.4 97.85 314.55 99.65 312.15 99.65 310.1 99.65 308.9 98.35 307.75 97 307.75 94.75 307.75 91.6 309.45 89.7 311.15 87.75 313.95 87.75 315.25 87.75 316.65 88.35 316.7 85.65 316.85 85.1
M 328.5 87.55
Q 328.5 88.75 327.5 91.8 326.6 94.6 324.2 98.85 323.75 99.85 323.25 100.8 322.8 101.55 322.25 101.55 321.9 101.55 321.65 101.25 321.35 100.95 321.35 100.6 321.35 100 322.2 98.5 324.2 95.05 324.25 94.95 322.35 92.35 321.2 90.15 320.35 88.4 320.35 87.75 320.35 86.85 321.15 86.85 321.7 86.85 322.25 87.8 322.7 88.8 323.2 89.85 324 91.65 325.1 93.15 325.85 91.3 326.25 89.3 326.7 87.2 326.75 87.15 327 86.35 327.6 86.35 328.5 86.35 328.5 87.55
M 341.15 89.3
Q 341.6 87.2 341.65 87.15 341.9 86.35 342.5 86.35 343.4 86.35 343.4 87.55 343.4 88.75 342.4 91.8 341.5 94.6 339.1 98.85 338.65 99.85 338.15 100.8 337.7 101.55 337.15 101.55 336.8 101.55 336.55 101.25 336.25 100.95 336.25 100.6 336.25 100 337.1 98.5 339.1 95.05 339.15 94.95 337.25 92.35 336.1 90.15 335.25 88.4 335.25 87.75 335.25 86.85 336.05 86.85 336.6 86.85 337.15 87.8 337.6 88.8 338.1 89.85 338.9 91.65 340 93.15 340.75 91.3 341.15 89.3
M 350.15 87
Q 352.05 87 353.35 88.3 354.6 89.6 354.6 91.6 354.6 92.65 353.9 93.1 353.6 93.35 351.9 93.65 349.7 94.15 348.15 94.15 347.4 94.15 346.4 94.05 346.4 97.7 349.2 97.7 350 97.7 350.6 97.25 350.9 97.05 351.75 96.25 352 95.95 352.35 95.95 352.75 95.95 353.05 96.25 353.35 96.55 353.35 97 353.35 97.35 353.05 97.65 351.4 99.5 349.15 99.5 344.45 99.5 344.45 94.1 344.45 91.35 345.95 89.3 347.65 87 350.15 87
M 360.8 88.4
Q 360.7 88.8 360.55 89.2 364.3 89.3 364.3 90.85 364.3 91.2 364.1 91.45 363.9 91.65 363.6 91.65 363.45 91.65 362.45 91.3 361.5 90.9 360.55 90.9 360.25 90.9 359.95 90.95 359.6 92.55 359.6 93.85 359.6 95.6 360.15 96.5 360.75 97.4 361.75 97.4 362.1 97.4 362.6 97.2 363.1 97 363.35 97 364.1 97 364.1 97.95 364.1 98.5 363.45 98.9 362.8 99.25 361.7 99.25 357.55 99.25 357.55 93.75 357.55 92.6 357.85 91.2 357.6 91.25 356.65 91.4 356.1 91.55 355.8 91.55 354.75 91.55 354.75 90.75 354.75 89.65 358.35 89.3 359.1 86.95 360.15 86.95 360.5 86.95 360.75 87.2 360.95 87.45 360.95 87.75 360.95 88.05 360.8 88.4
M 370.6 81.2
Q 370.6 81.6 370 83.95 369.05 87.55 368.9 91.7 368.8 93.6 368.7 93.9 368.5 94.65 367.75 94.65 367 94.65 366.65 93.75 366.4 92.9 366.4 90.85 366.4 87.25 367.8 82.55 368.5 80.2 369.7 80.2 370.6 80.2 370.6 81.2
M 366.65 98.4
Q 366.65 97.7 367.1 97.3 367.5 96.85 368.15 96.85 368.85 96.85 369.25 97.25 369.65 97.7 369.65 98.4 369.65 99.1 369.25 99.55 368.8 100 368.15 100 367.55 100 367.1 99.55 366.65 99.1 366.65 98.4
M 351.95 89.6
Q 351.3 88.8 350.3 88.8 349.05 88.8 348.1 89.7 347.1 90.6 346.6 92.3 347.3 92.35 348.05 92.35 349.95 92.35 352.65 91.75 352.6 90.35 351.95 89.6
M 310.85 90.85
Q 309.7 92.2 309.7 94.55 309.7 96.15 310.45 97.05 311.25 97.95 312.6 97.95 314.3 97.95 315.2 96.8 315.45 96.4 315.7 96.05 316 95.6 316.4 95.55 316.4 92.8 316.55 90.25 315.25 89.45 314 89.45 312 89.45 310.85 90.85
M 301.45 93.85
Q 298.9 93.85 298.9 96.3 298.9 98.8 301.45 98.8 302.55 98.8 303.2 98.15 303.8 97.5 303.8 96.35 303.8 93.85 301.45 93.85
M 291.4 88.8
Q 290.15 88.8 289.2 89.7 288.2 90.6 287.7 92.3 288.4 92.35 289.15 92.35 291.05 92.35 293.75 91.75 293.7 90.35 293.05 89.6 292.4 88.8 291.4 88.8
M 261.55 92.3
Q 262.25 92.35 263 92.35 264.9 92.35 267.6 91.75 267.55 90.35 266.9 89.6 266.25 88.8 265.25 88.8 264 88.8 263.05 89.7 262.05 90.6 261.55 92.3
M 253.05 89.75
Q 250.95 89.75 250 91.3
L 250 92.8
Q 250 93.9 250 95.1 250 96.35 250 96.45
L 250 96.5
Q 250.8 98.35 252.6 98.35 254.2 98.35 255.2 97.1 256.2 95.85 256.2 93.75 256.2 91.9 255.35 90.8 254.5 89.75 253.05 89.75
M 221.4 93.1
Q 221.4 95.15 222.2 96.25 223 97.35 224.5 97.35 226.45 97.35 227.55 96.15 228.65 95 228.65 92.85 228.65 90.9 227.7 89.8 226.75 88.7 225.1 88.7 221.4 88.7 221.4 93.1 Z"/>

<path fill="#393536" stroke="none" d="
M 367.1 97.3
Q 366.65 97.7 366.65 98.4 366.65 99.1 367.1 99.55 367.55 100 368.15 100 368.8 100 369.25 99.55 369.65 99.1 369.65 98.4 369.65 97.7 369.25 97.25 368.85 96.85 368.15 96.85 367.5 96.85 367.1 97.3
M 370 83.95
Q 370.6 81.6 370.6 81.2 370.6 80.2 369.7 80.2 368.5 80.2 367.8 82.55 366.4 87.25 366.4 90.85 366.4 92.9 366.65 93.75 367 94.65 367.75 94.65 368.5 94.65 368.7 93.9 368.8 93.6 368.9 91.7 369.05 87.55 370 83.95
M 360.55 89.2
Q 360.7 88.8 360.8 88.4 360.95 88.05 360.95 87.75 360.95 87.45 360.75 87.2 360.5 86.95 360.15 86.95 359.1 86.95 358.35 89.3 354.75 89.65 354.75 90.75 354.75 91.55 355.8 91.55 356.1 91.55 356.65 91.4 357.6 91.25 357.85 91.2 357.55 92.6 357.55 93.75 357.55 99.25 361.7 99.25 362.8 99.25 363.45 98.9 364.1 98.5 364.1 97.95 364.1 97 363.35 97 363.1 97 362.6 97.2 362.1 97.4 361.75 97.4 360.75 97.4 360.15 96.5 359.6 95.6 359.6 93.85 359.6 92.55 359.95 90.95 360.25 90.9 360.55 90.9 361.5 90.9 362.45 91.3 363.45 91.65 363.6 91.65 363.9 91.65 364.1 91.45 364.3 91.2 364.3 90.85 364.3 89.3 360.55 89.2
M 353.35 88.3
Q 352.05 87 350.15 87 347.65 87 345.95 89.3 344.45 91.35 344.45 94.1 344.45 99.5 349.15 99.5 351.4 99.5 353.05 97.65 353.35 97.35 353.35 97 353.35 96.55 353.05 96.25 352.75 95.95 352.35 95.95 352 95.95 351.75 96.25 350.9 97.05 350.6 97.25 350 97.7 349.2 97.7 346.4 97.7 346.4 94.05 347.4 94.15 348.15 94.15 349.7 94.15 351.9 93.65 353.6 93.35 353.9 93.1 354.6 92.65 354.6 91.6 354.6 89.6 353.35 88.3
M 350.3 88.8
Q 351.3 88.8 351.95 89.6 352.6 90.35 352.65 91.75 349.95 92.35 348.05 92.35 347.3 92.35 346.6 92.3 347.1 90.6 348.1 89.7 349.05 88.8 350.3 88.8
M 341.65 87.15
Q 341.6 87.2 341.15 89.3 340.75 91.3 340 93.15 338.9 91.65 338.1 89.85 337.6 88.8 337.15 87.8 336.6 86.85 336.05 86.85 335.25 86.85 335.25 87.75 335.25 88.4 336.1 90.15 337.25 92.35 339.15 94.95 339.1 95.05 337.1 98.5 336.25 100 336.25 100.6 336.25 100.95 336.55 101.25 336.8 101.55 337.15 101.55 337.7 101.55 338.15 100.8 338.65 99.85 339.1 98.85 341.5 94.6 342.4 91.8 343.4 88.75 343.4 87.55 343.4 86.35 342.5 86.35 341.9 86.35 341.65 87.15
M 327.5 91.8
Q 328.5 88.75 328.5 87.55 328.5 86.35 327.6 86.35 327 86.35 326.75 87.15 326.7 87.2 326.25 89.3 325.85 91.3 325.1 93.15 324 91.65 323.2 89.85 322.7 88.8 322.25 87.8 321.7 86.85 321.15 86.85 320.35 86.85 320.35 87.75 320.35 88.4 321.2 90.15 322.35 92.35 324.25 94.95 324.2 95.05 322.2 98.5 321.35 100 321.35 100.6 321.35 100.95 321.65 101.25 321.9 101.55 322.25 101.55 322.8 101.55 323.25 100.8 323.75 99.85 324.2 98.85 326.6 94.6 327.5 91.8
M 317.9 84.1
Q 317.05 84.1 316.85 85.1 316.7 85.65 316.65 88.35 315.25 87.75 313.95 87.75 311.15 87.75 309.45 89.7 307.75 91.6 307.75 94.75 307.75 97 308.9 98.35 310.1 99.65 312.15 99.65 314.55 99.65 316.4 97.85 316.4 98.05 316.4 98.45 316.4 100.05 317.4 100.05 318.3 100.05 318.3 98.6 318.3 98.55 318.3 97.9 318.3 97.2 318.3 96.5 318.3 93.25 318.4 90.4 318.5 88.4 318.6 86.65
L 318.75 85.15
Q 318.75 84.1 317.9 84.1
M 309.7 94.55
Q 309.7 92.2 310.85 90.85 312 89.45 314 89.45 315.25 89.45 316.55 90.25 316.4 92.8 316.4 95.55 316 95.6 315.7 96.05 315.45 96.4 315.2 96.8 314.3 97.95 312.6 97.95 311.25 97.95 310.45 97.05 309.7 96.15 309.7 94.55
M 301.1 87.6
Q 299.85 87.6 298.95 88.15 298.1 88.65 298.1 89.25 298.1 89.6 298.35 89.85 298.6 90.15 298.95 90.15 299.15 90.15 299.85 89.75 300.5 89.4 301.1 89.4 303.8 89.4 303.95 93.25 302.85 92.15 301.2 92.15 299.3 92.15 298.15 93.3 297 94.45 297 96.4 297 98.3 298.05 99.35 299.15 100.45 301 100.45 302.1 100.45 303.05 99.9 303.05 100 303.05 100.2 303.05 101.1 303.85 101.1 304.6 101.1 305 99.65 305.8 96.7 305.8 94.05 305.8 87.6 301.1 87.6
M 298.9 96.3
Q 298.9 93.85 301.45 93.85 303.8 93.85 303.8 96.35 303.8 97.5 303.2 98.15 302.55 98.8 301.45 98.8 298.9 98.8 298.9 96.3
M 289.25 94.15
Q 290.8 94.15 293 93.65 294.7 93.35 295 93.1 295.7 92.65 295.7 91.6 295.7 89.6 294.45 88.3 293.15 87 291.25 87 288.75 87 287.05 89.3 285.55 91.35 285.55 94.1 285.55 99.5 290.25 99.5 292.5 99.5 294.15 97.65 294.45 97.35 294.45 97 294.45 96.55 294.15 96.25 293.85 95.95 293.45 95.95 293.1 95.95 292.85 96.25 292 97.05 291.7 97.25 291.1 97.7 290.3 97.7 287.5 97.7 287.5 94.05 288.5 94.15 289.25 94.15
M 289.2 89.7
Q 290.15 88.8 291.4 88.8 292.4 88.8 293.05 89.6 293.7 90.35 293.75 91.75 291.05 92.35 289.15 92.35 288.4 92.35 287.7 92.3 288.2 90.6 289.2 89.7
M 282.45 88.6
Q 280.5 88.6 279.5 90.55 278.8 88.05 277.75 88.05 277.4 88.05 277.1 88.3 276.8 88.55 276.8 88.9 276.8 89.15 277.05 89.65 277.6 90.6 277.6 90.65 278.4 92.25 278.4 95 278.4 96 278.1 97.1 277.85 98.25 277.85 98.4 277.85 99.3 278.7 99.3 279.4 99.3 279.8 98.1 280.25 96.85 280.25 94.7
L 280.25 93.45
Q 280.25 92.05 280.85 91.25 281.4 90.4 282.35 90.4 282.7 90.4 283.15 90.75 283.65 91.1 283.85 91.1 284.15 91.1 284.4 90.85 284.6 90.6 284.6 90.2 284.6 89.5 284 89.05 283.4 88.6 282.45 88.6
M 261.35 94.05
Q 262.35 94.15 263.1 94.15 264.65 94.15 266.85 93.65 268.55 93.35 268.85 93.1 269.55 92.65 269.55 91.6 269.55 89.6 268.3 88.3 267 87 265.1 87 262.6 87 260.9 89.3 259.4 91.35 259.4 94.1 259.4 99.5 264.1 99.5 266.35 99.5 268 97.65 268.3 97.35 268.3 97 268.3 96.55 268 96.25 267.7 95.95 267.3 95.95 266.95 95.95 266.7 96.25 265.85 97.05 265.55 97.25 264.95 97.7 264.15 97.7 261.35 97.7 261.35 94.05
M 263 92.35
Q 262.25 92.35 261.55 92.3 262.05 90.6 263.05 89.7 264 88.8 265.25 88.8 266.25 88.8 266.9 89.6 267.55 90.35 267.6 91.75 264.9 92.35 263 92.35
M 249.6 85.35
Q 249.3 84.15 248.5 84.15 248.15 84.15 247.85 84.4 247.6 84.65 247.6 84.95 247.6 85.1 247.7 85.7 247.85 86.5 247.95 87.1 248.15 88.7 248.15 92.05 248.15 94.25 248.1 96.2 248.05 97.6 248 98.8
L 247.95 99.85
Q 247.95 101 248.9 101 249.55 101 249.75 100.4 249.85 100.05 249.9 99.2 250.95 100.15 252.45 100.15 255.1 100.15 256.6 98.45 258.15 96.7 258.15 93.7 258.15 91.05 256.85 89.55 255.55 88.05 253.3 88.05 251.5 88.05 249.95 89.15 249.8 86.2 249.6 85.35
M 250 91.3
Q 250.95 89.75 253.05 89.75 254.5 89.75 255.35 90.8 256.2 91.9 256.2 93.75 256.2 95.85 255.2 97.1 254.2 98.35 252.6 98.35 250.8 98.35 250 96.5
L 250 96.45
Q 250 96.35 250 95.1 250 93.9 250 92.8
L 250 91.3
M 230.9 90.75
Q 230.9 91.55 231.95 91.55 232.25 91.55 232.8 91.4 233.75 91.25 234 91.2 233.7 92.6 233.7 93.75 233.7 99.25 237.85 99.25 238.95 99.25 239.6 98.9 240.25 98.5 240.25 97.95 240.25 97 239.5 97 239.25 97 238.75 97.2 238.25 97.4 237.9 97.4 236.9 97.4 236.3 96.5 235.75 95.6 235.75 93.85 235.75 92.55 236.1 90.95 236.4 90.9 236.7 90.9 237.65 90.9 238.6 91.3 239.6 91.65 239.75 91.65 240.05 91.65 240.25 91.45 240.45 91.2 240.45 90.85 240.45 89.3 236.7 89.2 236.85 88.8 236.95 88.4 237.1 88.05 237.1 87.75 237.1 87.45 236.9 87.2 236.65 86.95 236.3 86.95 235.25 86.95 234.5 89.3 230.9 89.65 230.9 90.75
M 219.5 93.15
Q 219.5 95.95 220.8 97.55 222.1 99.15 224.45 99.15 227.25 99.15 228.9 97.45 230.6 95.7 230.6 92.85 230.6 90.15 229.15 88.55 227.75 86.9 225.4 86.9 222.65 86.9 221.05 88.5 219.5 90.15 219.5 93.15
M 222.2 96.25
Q 221.4 95.15 221.4 93.1 221.4 88.7 225.1 88.7 226.75 88.7 227.7 89.8 228.65 90.9 228.65 92.85 228.65 95 227.55 96.15 226.45 97.35 224.5 97.35 223 97.35 222.2 96.25
M 210.15 89.8
L 210.15 89.6
Q 210.15 89.2 210.3 88.6 210.4 88 210.4 87.75 210.4 87.45 210.15 87.25 209.9 87 209.5 87 208.35 87 208.35 89.95 208.35 91.65 208.75 95.7 209 98.6 209 99.2 209.1 99.75 209.25 99.9 209.45 100.1 209.95 100.1 210.9 100.1 210.9 98.45 210.9 97.7 210.6 96 210.35 94.3 210.35 93.35 210.35 91.65 211.25 90.65 212.1 89.65 213.45 89.65 215.85 89.65 215.85 93.45 215.85 95.1 215.35 96.8 214.9 98.5 214.9 98.55 214.9 98.9 215.15 99.15 215.45 99.35 215.8 99.35 216.5 99.35 216.95 97.95 217.7 95.65 217.7 93.3 217.7 90.65 216.65 89.25 215.6 87.85 213.7 87.85 211.6 87.85 210.15 89.8
M 200.5 89.35
Q 200.5 88.5 199.55 87.8 198.55 87.1 197.15 87.1 195.45 87.1 194.45 88.15 193.35 89.2 193.35 90.9 193.35 93 195.35 94.55 196.75 95.7 196.8 95.7 197.35 96.25 197.35 96.85 197.35 97.5 196.9 97.95 196.4 98.4 195.7 98.4 194.8 98.4 194.1 97.55 194.1 96.25 193.2 96.25 192.15 96.25 192.15 97.45 192.15 98.6 193.15 99.4 194.15 100.2 195.7 100.2 197.3 100.2 198.35 99.25 199.35 98.25 199.35 96.7 199.35 95.5 198.55 94.6 198.15 94.15 196.65 92.95 195.95 92.4 195.7 92 195.35 91.5 195.35 90.85 195.35 88.85 197.1 88.85 198.1 88.85 198.7 89.65 198.85 89.9 199 90.1 199.2 90.35 199.55 90.35 200.5 90.35 200.5 89.35
M 188.05 90.2
Q 188.05 90.3 188.05 91.2 188.1 92.05 188.1 92.85 188.1 94.7 187.9 96.2 187.8 97.25 187.6 98.05
L 187.45 98.75
Q 187.45 99.1 187.75 99.35 188 99.6 188.4 99.6 189 99.6 189.25 99.1 189.45 98.7 189.6 97.55 190.05 94.75 190.05 88.85 190.05 87.8 189.15 87.8 188.5 87.8 188.25 88.4 188.05 88.9 188.05 90.2
M 190.45 85.15
Q 190.45 84.55 190.1 84.2 189.8 83.85 189.2 83.85 188.6 83.85 188.2 84.25 187.8 84.65 187.8 85.25 187.8 85.75 188.2 86.15 188.55 86.55 189.1 86.55 190.45 86.55 190.45 85.15
M 177.9 85.4
Q 177.9 85 177.65 84.7 177.35 84.45 177 84.45 176.5 84.45 176.25 84.85 176.1 85.15 175.95 86.05 175.2 90.3 175.2 93.65 175.2 97.4 175.55 99.7 175.7 100.5 175.85 100.8 176.1 101.1 176.6 101.1 177.5 101.1 177.5 100.15
L 177.3 97.95
Q 177.1 95.6 177.1 93.15
L 177.1 92.5
Q 177.1 91.2 177.65 90.55 178.05 90 178.85 89.65 179.6 89.3 180.35 89.3 181.75 89.3 182.35 90.55 183 91.75 183 94.35 183 96.15 182.5 97.85
L 182.05 99.55
Q 182.05 99.9 182.35 100.2 182.65 100.45 183.1 100.45 183.9 100.45 184.4 98.85 184.9 97.15 184.9 94.35 184.9 87.5 180.5 87.5 178.65 87.5 177.4 88.7
L 177.9 85.4
M 165.55 87.2
Q 165.65 92.25 165.65 93.65 165.65 96.15 165.5 98.75 165.35 101.3 165.35 101.35 165.35 102.6 166.3 102.6 166.85 102.6 167.1 102.2 167.3 101.8 167.4 100.85 167.6 97.95 167.6 93.85 167.6 91.75 167.45 87.25 171.15 87.45 172.4 87.85 172.5 87.9 172.95 88.1 173.3 88.25 173.55 88.25 173.85 88.25 174.15 87.95 174.45 87.65 174.45 87.25 174.45 85.25 166.15 85.25 161.8 85.25 159.7 86.25 158.45 86.85 158.45 88.8 158.45 90.05 159.25 90.05 160.3 90.05 160.45 88.05 161.95 87.25 165.55 87.2 Z"/>
</g>

<g id="Layer1_1_MEMBER_0_MEMBER_0_FILL">
<path fill="#000000" stroke="none" d="
M 254.7 89.25
Q 256.9 88.1 259.35 88.1 262.5 88.1 265 89.85 268.4 92.2 269.2 96.25 269.35 97 269.35 98.5 271.5 97 273 95.3 279.35 88.5 278.95 79.15 278.55 69.85 271.7 63.55 264.85 57.2 255.55 57.6 246.25 58 239.9 64.85 238.45 66.45 237.15 68.55
L 242.95 70.25 234.2 76.85
Q 233.45 82.3 235.2 87.45 237.05 92.8 241.25 96.65 243.4 98.65 246 99.95
L 251.1 92.5
Q 252.5 90.45 254.7 89.25 Z"/>
</g>

<g id="Layer1_1_MEMBER_0_MEMBER_1_FILL">
<path fill="#000000" stroke="none" d="
M 202.45 95
L 194.55 90.8
Q 190 95.05 186.3 99.2 190.5 101.75 192.25 103.4 194.1 105.05 194.15 106.5 194.3 107.95 193.05 108.85 191.95 109.65 189.75 109.65 186.3 109.65 179.4 107.8 172.6 117.35 166 132.85 163.35 140.8 165.2 146.8 166.7 151.75 171.4 155.6
L 178.45 179.9 139.55 190
Q 134.55 191.3 131.9 195.8 129.3 200.25 130.6 205.25 131.7 209.45 135.1 212.05 138.5 214.6 142.7 214.6 144.45 214.6 145.85 214.2
L 197.15 200.9
Q 202.25 199.6 204.9 194.95 207.45 190.45 206.05 185.3
L 202.95 174.65 212.45 180.2 221.85 220
Q 222.85 224.25 226.3 227 229.7 229.65 234 229.65 235.25 229.65 236.9 229.3 241.95 228.1 244.65 223.7 247.4 219.25 246.2 214.25
L 235.5 169.25
Q 234.35 164 229.7 161.35
L 200.1 144
Q 203.75 137.5 209.5 130.05 213.4 124.95 219.75 117.6
L 208.9 106
Q 206.1 102.95 206.25 98.8 206.4 94.6 209.4 91.85 212.35 89.15 216.2 89.15 220.5 89.15 223.55 92.35
L 239.5 109.5 241.6 106.4 231.2 87.3
Q 230.05 85.2 228.1 84.15 223.45 80.55 217.1 80.2
L 213.45 85.5 210.65 80.75
Q 204.7 82.15 199.55 86.3
L 202.45 95 Z"/>
</g>

<g id="Layer1_1_MEMBER_0_MEMBER_2_FILL">
<path fill="#000000" stroke="none" d="
M 257.85 90.25
Q 254.65 90.85 252.75 93.6
L 239.75 112.7 222.1 93.7
Q 219.8 91.3 216.5 91.2 213.2 91.05 210.75 93.3 208.35 95.6 208.25 98.9 208.1 102.2 210.35 104.6
L 234.85 130.9
Q 237.15 133.45 240.7 133.45
L 241.3 133.45
Q 245.15 133.15 247.3 129.95
L 265.95 102.65
Q 267.85 99.9 267.2 96.65 266.6 93.4 263.85 91.5 261.1 89.65 257.85 90.25 Z"/>
</g>

<g id="Layer1_1_MEMBER_0_MEMBER_3_FILL">
<path fill="#000000" stroke="none" d="
M 456.35 332.55
Q 457.3 329.35 455.7 326.45
L 439.35 296.3 435.95 301.25
Q 434.7 303.15 432.7 304.25 430.75 305.4 428.45 305.6
L 427.7 305.6 426.1 305.45 441.45 333.65 441.65 334.1
Q 441.715625 334.221875 441.75 334.35 442.821875 336.11875 444.65 337.15 446.55 338.25 448.7 338.25 450.75 338.25 452.5 337.3 455.45 335.7 456.35 332.55 Z"/>
</g>

<g id="Layer1_1_MEMBER_0_MEMBER_4_FILL">
<path fill="#000000" stroke="none" d="
M 201.7 77.1
Q 201.9 77.5 202.25 77.65
L 202.65 77.75
Q 203.3 77.75 203.55 77.15
L 203.8 76.65
Q 205.4 74.05 207.95 74.05 209.2 74.05 210.75 74.75 211.15 74.95 211.5 74.8 211.9 74.7 212.1 74.3 212.25 73.9 212.1 73.55 211.95 73.15 211.6 72.95 209.6 72.05 207.95 72.05 205.1 72.05 203.15 74.2 202.55 74.85 202.05 75.65 201.75 76.35 201.7 76.35 201.55 76.75 201.7 77.1 Z"/>
</g>

<g id="Layer1_1_MEMBER_0_MEMBER_5_FILL">
<path fill="#000000" stroke="none" d="
M 200.1 73.8
L 200.55 73.1
Q 203.2 69.15 207.25 69.15 209.5 69.15 212.15 70.55 212.55 70.75 212.9 70.6 213.3 70.5 213.5 70.1 213.7 69.75 213.55 69.35 213.45 68.95 213.1 68.75 209.95 67.15 207.25 67.15 203.35 67.2 200.45 70.05 198.35 72.9 198.3 72.95 198.15 73.35 198.3 73.7 198.45 74.1 198.8 74.3
L 199.2 74.4
Q 199.85 74.4 200.1 73.8 Z"/>
</g>

<g id="Layer1_1_MEMBER_0_MEMBER_6_FILL">
<path fill="#000000" stroke="none" d="
M 279.6 95.75
L 279.6 95.9
Q 279.55 97.4 278.85 98.6 277.5 100.95 274.2 101
L 273.95 101
Q 273.55 101 273.25 101.3 272.95 101.6 272.95 102 272.95 102.4 273.25 102.7 273.55 103 273.95 103
L 274.3 103
Q 276.65 103 278.4 101.95 279.85 101.05 280.6 99.6 281.6 97.75 281.6 95.95 281.6 95.05 280.75 94.9 279.75 94.8 279.6 95.75 Z"/>
</g>

<g id="Layer1_1_MEMBER_0_MEMBER_7_FILL">
<path fill="#000000" stroke="none" d="
M 284.1 97.55
L 283.9 98.75
Q 282.35 105.4 275.35 105.45 274.7 105.45 274.4 105.4 274 105.4 273.65 105.65 273.35 105.95 273.3 106.35 273.3 106.75 273.55 107.1 273.85 107.4 274.25 107.4
L 275.45 107.45
Q 278.85 107.45 281.4 105.9 283.45 104.6 284.6 102.5 286 100.05 286.1 97.6 286.1 97.2 285.8 96.9 285.5 96.6 285.1 96.6 284.7 96.55 284.4 96.85 284.1 97.15 284.1 97.55 Z"/>
</g>

<g id="Layer1_1_MEMBER_0_MEMBER_8_FILL">
<path fill="#000000" stroke="none" d="
M 268.15 51.65
Q 266.6 50.7 264.95 50.75 263.6 50.75 262.25 51.25 261.35 51.55 261.15 51.75 260.8 52 260.7 52.35 260.6 52.75 260.8 53.1 261.05 53.5 261.4 53.6 261.8 53.7 262.15 53.45
L 262.35 53.35
Q 263.55 52.75 264.95 52.75 267.6 52.75 269.35 55.85 269.7 56.35 270.25 56.35
L 270.7 56.25
Q 271.05 56.05 271.2 55.65 271.3 55.25 271.1 54.9 269.95 52.7 268.15 51.65 Z"/>
</g>

<g id="Layer1_1_MEMBER_0_MEMBER_9_FILL">
<path fill="#000000" stroke="none" d="
M 260.45 47
Q 260.1 47.2 259.95 47.6 259.8 48 260 48.35 260.2 48.7 260.6 48.8 261 48.95 261.35 48.75
L 261.65 48.6
Q 263.55 47.8 265.45 47.8 270.35 47.9 273 53.25 273.25 53.8 273.9 53.8 274.2 53.8 274.35 53.7 274.75 53.55 274.85 53.15 275 52.8 274.8 52.4 273.1 48.85 270.3 47.15 268.05 45.8 265.45 45.8 263.65 45.85 261.9 46.4 260.65 46.8 260.45 47 Z"/>
</g>

<g id="Layer1_1_MEMBER_0_MEMBER_10_FILL">
<path fill="#000000" stroke="none" d="
M 209.3 10.9
L 205.15 12.7 235.05 49.15 236.95 48.2 209.3 10.9 Z"/>
</g>

<g id="Layer1_1_MEMBER_0_MEMBER_11_FILL">
<path fill="#000000" stroke="none" d="
M 243.3 46.6
L 245.4 46.8 241.05 0.55 236.55 0 243.3 46.6 Z"/>
</g>

<g id="Layer1_1_MEMBER_0_MEMBER_12_FILL">
<path fill="#000000" stroke="none" d="
M 187.05 34.7
L 184.2 38.25 227.3 57.2 228.55 55.5 187.05 34.7 Z"/>
</g>

<g id="Layer1_1_MEMBER_0_MEMBER_13_FILL">
<path fill="#000000" stroke="none" d="
M 189.2 70.1
L 184.35 66.15 182 63.8 176.8 63.2
Q 175.45 59.35 174.6 59.35 174.05 59.35 173.25 61.3 171.95 57.85 171.2 57.85 170.3 57.85 169 62.3
L 165.1 66.4
Q 156.1 74.95 146.4 81.55 131.75 91.5 119.1 94.35 115.2 94.8 111.75 94.8 97.15 94.8 86.9 88.4 86 87.85 85 88.1 84 88.35 83.45 89.2 82.9 90.1 83.15 91.1 83.4 92.1 84.25 92.65 95.85 99.8 111.75 99.8 114.9 99.8 118.65 99.45
L 121.9 106.35
Q 117.7 114.5 115.25 120.7 111.25 130.85 113.35 132.3 116.35 134.45 128.55 117.7 136.65 115.35 144.55 112.3 157.95 107.15 164.6 102.1 165.4 101.55 166.3 100.75 172 103.75 180.8 106.1 190.05 108.6 191.85 107.25 193.75 105.9 184.1 100.2 172.55 93.9 169.55 92.1 169.25 91 168.55 89.35 167.3 86.75 165.6 84.25
L 173.2 90.2 181.85 79.05 185.7 78.25 187.6 77.05 187.85 76.35 187.6 76.5 186.15 74.4 182.8 75.8 179.6 74.5 179.95 73.6 182.8 74.75 186.55 73.2 187.9 75.2 188.25 75 189.5 71.1 189.2 70.1
M 183.55 69.95
Q 183.15 70.5 182.5 70.6 181.85 70.7 181.3 70.3 180.8 69.9 180.7 69.25 180.6 68.6 180.95 68.05 181.35 67.55 182.65 68.5 183.95 69.4 183.55 69.95 Z"/>
</g>

<g id="Layer1_1_MEMBER_0_MEMBER_14_FILL">
<path fill="#000000" stroke="none" d="
M 97.95 114.6
Q 91.2 117.6 83.85 123.15 60.45 140.9 40.3 163 20.5 184.7 4.6 209.7 -0.3 217.9 0 218.05 0.3 218.25 5.55 210.3 22.5 186.3 43.15 165.75 64.05 145 87.85 128.75 106.7 115.85 105.15 113.25 104.3 111.75 97.95 114.6 Z"/>
</g>

<path id="Layer1_1_1_STROKES" stroke="#000000" stroke-width="2" stroke-linejoin="miter" stroke-linecap="butt" stroke-miterlimit="10" fill="none" d="
M 297.6 130
L 157.25 130
Q 137.25 130 137.25 110
L 137.25 78
Q 137.25 58 157.25 58
L 374.5 58
Q 393.25 58.7 393.25 78
L 393.25 110
Q 393.25 129.4 374.5 130
L 342.9 130
Q 338.8 156.5 362.75 171.5 315.35 160.65 297.6 130
L 297.3 129.5
M 343.15 129.5
L 342.9 130"/>
</defs>

<g transform="matrix( 1, 0, 0, 1, 0,0) ">
<use xlink:href="#Layer1_0_FILL"/>
</g>

<g transform="matrix( 1, 0, 0, 1, 0,0) ">
<use xlink:href="#Layer1_1_FILL"/>

<use xlink:href="#Layer1_1_1_STROKES"/>
</g>

<g transform="matrix( 1, 0, 0, 1, 212.7,108.95) ">
<use xlink:href="#Layer1_1_MEMBER_0_MEMBER_0_FILL"/>
</g>

<g transform="matrix( 1, 0, 0, 1, 212.7,108.95) ">
<use xlink:href="#Layer1_1_MEMBER_0_MEMBER_1_FILL"/>
</g>

<g transform="matrix( 1, 0, 0, 1, 212.7,108.95) ">
<use xlink:href="#Layer1_1_MEMBER_0_MEMBER_2_FILL"/>
</g>

<g transform="matrix( 1, 0, 0, 1, 25.7,-61.2) ">
<use xlink:href="#Layer1_1_MEMBER_0_MEMBER_3_FILL"/>
</g>

<g transform="matrix( 1, 0, 0, 1, 212.7,108.95) ">
<use xlink:href="#Layer1_1_MEMBER_0_MEMBER_4_FILL"/>
</g>

<g transform="matrix( 1, 0, 0, 1, 212.7,108.95) ">
<use xlink:href="#Layer1_1_MEMBER_0_MEMBER_5_FILL"/>
</g>

<g transform="matrix( 1, 0, 0, 1, 212.7,108.95) ">
<use xlink:href="#Layer1_1_MEMBER_0_MEMBER_6_FILL"/>
</g>

<g transform="matrix( 1, 0, 0, 1, 212.7,108.95) ">
<use xlink:href="#Layer1_1_MEMBER_0_MEMBER_7_FILL"/>
</g>

<g transform="matrix( 1, 0, 0, 1, 212.7,108.95) ">
<use xlink:href="#Layer1_1_MEMBER_0_MEMBER_8_FILL"/>
</g>

<g transform="matrix( 1, 0, 0, 1, 212.7,108.95) ">
<use xlink:href="#Layer1_1_MEMBER_0_MEMBER_9_FILL"/>
</g>

<g transform="matrix( 1, 0, 0, 1, 212.7,108.95) ">
<use xlink:href="#Layer1_1_MEMBER_0_MEMBER_10_FILL"/>
</g>

<g transform="matrix( 1, 0, 0, 1, 212.7,108.95) ">
<use xlink:href="#Layer1_1_MEMBER_0_MEMBER_11_FILL"/>
</g>

<g transform="matrix( 1, 0, 0, 1, 212.7,108.95) ">
<use xlink:href="#Layer1_1_MEMBER_0_MEMBER_12_FILL"/>
</g>

<g transform="matrix( 1, 0, 0, 1, 212.7,108.95) ">
<use xlink:href="#Layer1_1_MEMBER_0_MEMBER_13_FILL"/>
</g>

<g transform="matrix( 1, 0, 0, 1, 212.7,108.95) ">
<use xlink:href="#Layer1_1_MEMBER_0_MEMBER_14_FILL"/>
</g>
</svg>
